<svg xmlns="http://www.w3.org/2000/svg" viewBox="0 0 385 60"><defs><style>.a{fill:#da4b42;}.b{fill:#fff;}</style></defs><rect class="a" width="385" height="60"/><path class="b" d="M106.8,39V22h4.1V35.4h6.6V39Z"/><path class="b" d="M131.4,33a7.5,7.5,0,0,1-.5,2.6,6.2,6.2,0,0,1-1.5,2,5.7,5.7,0,0,1-2.1,1.3,7.5,7.5,0,0,1-5.1,0,5.7,5.7,0,0,1-2.1-1.3,4.8,4.8,0,0,1-1.4-2,5.8,5.8,0,0,1-.6-2.6,6.7,6.7,0,0,1,2-4.7,7.2,7.2,0,0,1,2.1-1.2,7.4,7.4,0,0,1,5.1,0,7.2,7.2,0,0,1,2.1,1.2,7,7,0,0,1,1.5,2A8.6,8.6,0,0,1,131.4,33Zm-3.8,0a5,5,0,0,0-.2-1.2,4.1,4.1,0,0,0-.5-.9l-.9-.7a2.8,2.8,0,0,0-2.5,0,2.7,2.7,0,0,0-.8.7,2.4,2.4,0,0,0-.6.9,4.5,4.5,0,0,0,0,2.3,2.1,2.1,0,0,0,.6,1,2.2,2.2,0,0,0,.9.7,2.5,2.5,0,0,0,2.4,0l.9-.7a3.1,3.1,0,0,0,.5-1A4.3,4.3,0,0,0,127.6,33Z"/><path class="b" d="M146.6,37.9a10.5,10.5,0,0,1-.5,3,6.4,6.4,0,0,1-1.4,2.2,5.1,5.1,0,0,1-2.3,1.2,9.3,9.3,0,0,1-2.9.5,11.3,11.3,0,0,1-3.2-.5,9.7,9.7,0,0,1-2.9-1.4l2-2.8a4.5,4.5,0,0,0,1.9,1.1,4.5,4.5,0,0,0,2,.4,3.5,3.5,0,0,0,2.6-.9,3.2,3.2,0,0,0,.8-2.4v-.8h-.1a4.4,4.4,0,0,1-1.5,1.2,5.9,5.9,0,0,1-4.5-.1,4.6,4.6,0,0,1-1.8-1.3,4.9,4.9,0,0,1-1.1-2,5.9,5.9,0,0,1-.4-2.3,6.7,6.7,0,0,1,.4-2.4,5.6,5.6,0,0,1,1.1-2,5.5,5.5,0,0,1,4.2-1.9,5,5,0,0,1,2.1.5,3.9,3.9,0,0,1,1.7,1.4h.1V27h3.7ZM142.8,33a2.5,2.5,0,0,0-.2-1.2,2.1,2.1,0,0,0-.6-1,1.5,1.5,0,0,0-.9-.6,2.5,2.5,0,0,0-2.4,0,1.6,1.6,0,0,0-.8.6,2.1,2.1,0,0,0-.6,1,5,5,0,0,0-.2,1.2,5.2,5.2,0,0,0,.2,1.1,2.1,2.1,0,0,0,.6,1,2.5,2.5,0,0,0,2,.9,2.7,2.7,0,0,0,2.1-.9,2.1,2.1,0,0,0,.6-1A2.2,2.2,0,0,0,142.8,33Z"/><path class="b" d="M154,23.2a2.9,2.9,0,0,1-.2.9,2.5,2.5,0,0,1-1.2,1.1l-.9.2a2.3,2.3,0,0,1-1.6-.6,2.4,2.4,0,0,1-.7-1.6,2.4,2.4,0,0,1,.2-.8,1.8,1.8,0,0,1,.5-.7l.7-.4a1.5,1.5,0,0,1,.9-.2h.9l.7.5a1.8,1.8,0,0,1,.5.7A1.9,1.9,0,0,1,154,23.2ZM149.7,39V27h4V39Z"/><path class="b" d="M164.6,39V31.5l-.3-.8a1,1,0,0,0-.6-.5.8.8,0,0,0-.8-.2,1.6,1.6,0,0,0-1,.2l-.6.5a3.6,3.6,0,0,0-.4.9,2.9,2.9,0,0,0-.2.9V39h-3.9V27h3.8v1.7h.1a3.5,3.5,0,0,1,.5-.8l.8-.6,1.1-.4,1.1-.2a5.2,5.2,0,0,1,2.1.4,3.7,3.7,0,0,1,1.3,1.2,4.4,4.4,0,0,1,.8,1.5,11,11,0,0,1,.2,1.8V39Z"/><path class="b" d="M192.8,39h-4l-2.3-7.4h-.1L184.1,39h-3.9L176,27h4.3l2.1,7.6h0l2.2-7.6h3.9l2.2,7.6h.1l2.1-7.6h4Z"/><path class="b" d="M202.8,23.2a2.9,2.9,0,0,1-.2.9l-.5.7-.7.4-.9.2a2.3,2.3,0,0,1-1.6-.6,2.4,2.4,0,0,1-.7-1.6,2.4,2.4,0,0,1,.2-.8,1.8,1.8,0,0,1,.5-.7l.7-.4a1.5,1.5,0,0,1,.9-.2h.9l.7.5a1.8,1.8,0,0,1,.5.7A1.9,1.9,0,0,1,202.8,23.2ZM198.5,39V27h4V39Z"/><path class="b" d="M209.9,30v4.6a1.4,1.4,0,0,0,.3,1.2,1.2,1.2,0,0,0,1.1.4h.7l.5-.2v2.9l-1,.3h-1.2a7.6,7.6,0,0,1-2.1-.3,3.8,3.8,0,0,1-1.3-.9,5.4,5.4,0,0,1-.7-1.3A11,11,0,0,1,206,35V30h-1.9V27H206V23.9h3.9V27h2.8v3Z"/><path class="b" d="M222.4,39V32.5a2.8,2.8,0,0,0-.1-.9,1.1,1.1,0,0,0-.3-.8,1,1,0,0,0-.5-.6l-.9-.2a2,2,0,0,0-1.6.7,4.1,4.1,0,0,0-.5,1.9V39h-3.9V20.9h3.9v7.7h0a4,4,0,0,1,1.3-1.3,4.3,4.3,0,0,1,2.2-.6,4.5,4.5,0,0,1,2,.4,4.1,4.1,0,0,1,1.4,1.2,4.1,4.1,0,0,1,.7,1.5,5.5,5.5,0,0,1,.2,1.8V39Z"/><path class="b" d="M247.7,39a14.7,14.7,0,0,1-3.6.4,12.1,12.1,0,0,1-3.8-.6,7.9,7.9,0,0,1-2.9-1.8,8.4,8.4,0,0,1-2-2.9,10.2,10.2,0,0,1,0-7.3,9.5,9.5,0,0,1,2-2.8,8.8,8.8,0,0,1,2.9-1.8,9.3,9.3,0,0,1,3.7-.6,8,8,0,0,1,3.7.6,7.8,7.8,0,0,1,2.8,1.6l-2.6,3a4.8,4.8,0,0,0-1.6-1.2,5.4,5.4,0,0,0-2.2-.4,4.5,4.5,0,0,0-2,.4,4.2,4.2,0,0,0-1.6,1.1,4.8,4.8,0,0,0-1,1.7,4.9,4.9,0,0,0-.4,2.1,7.6,7.6,0,0,0,.3,2.1,6.9,6.9,0,0,0,1,1.7,4.5,4.5,0,0,0,1.7,1.1,5.4,5.4,0,0,0,2.2.4h1.4a5.3,5.3,0,0,0,1.2-.3V32.3h-3.3V29h7v9A14.2,14.2,0,0,1,247.7,39Z"/><path class="b" d="M266.4,33a4.7,4.7,0,0,1-.5,2.6,4.8,4.8,0,0,1-1.4,2,6.7,6.7,0,0,1-2.1,1.3,7.7,7.7,0,0,1-5.2,0,6.7,6.7,0,0,1-2.1-1.3,4.8,4.8,0,0,1-1.4-2,5.8,5.8,0,0,1-.5-2.6,6.5,6.5,0,0,1,.5-2.7,6.6,6.6,0,0,1,1.4-2,8.8,8.8,0,0,1,2.1-1.2,7.7,7.7,0,0,1,5.2,0,8.8,8.8,0,0,1,2.1,1.2,6.6,6.6,0,0,1,1.4,2A5.2,5.2,0,0,1,266.4,33Zm-3.7,0a5,5,0,0,0-.2-1.2,4.7,4.7,0,0,0-.6-.9,2.2,2.2,0,0,0-.9-.7,2.5,2.5,0,0,0-2.4,0,2.2,2.2,0,0,0-.9.7,4.1,4.1,0,0,0-.5.9,3,3,0,0,0,0,2.3,3.1,3.1,0,0,0,.5,1l.9.7a2.6,2.6,0,0,0,3.3-.7,2.1,2.1,0,0,0,.6-1,4.3,4.3,0,0,0,.2-1.1Z"/><path class="b" d="M281.6,33a7.5,7.5,0,0,1-.5,2.6,4.3,4.3,0,0,1-1.5,2,5.7,5.7,0,0,1-2.1,1.3,7.4,7.4,0,0,1-5.1,0,5.7,5.7,0,0,1-2.1-1.3,4.8,4.8,0,0,1-1.4-2,5.8,5.8,0,0,1-.6-2.6,6.7,6.7,0,0,1,2-4.7,7.2,7.2,0,0,1,2.1-1.2,7.4,7.4,0,0,1,5.1,0,7.2,7.2,0,0,1,2.1,1.2,5.5,5.5,0,0,1,1.5,2A8.6,8.6,0,0,1,281.6,33Zm-3.8,0a2.5,2.5,0,0,0-.2-1.2,4.1,4.1,0,0,0-.5-.9l-.9-.7a2.8,2.8,0,0,0-2.5,0,2.7,2.7,0,0,0-.8.7,4.7,4.7,0,0,0-.6.9,4.5,4.5,0,0,0,0,2.3,3.3,3.3,0,0,0,.6,1,2.2,2.2,0,0,0,.9.7,2.6,2.6,0,0,0,3.3-.7,3.1,3.1,0,0,0,.5-1,2.2,2.2,0,0,0,.2-1.1Z"/><path class="b" d="M296.8,37.9a10.5,10.5,0,0,1-.5,3,6.4,6.4,0,0,1-1.4,2.2,5.1,5.1,0,0,1-2.3,1.2,9.2,9.2,0,0,1-2.8.5,12.6,12.6,0,0,1-3.3-.5,11.1,11.1,0,0,1-2.9-1.4l2-2.8a4.5,4.5,0,0,0,1.9,1.1,4.5,4.5,0,0,0,2,.4,3.5,3.5,0,0,0,2.6-.9,3.2,3.2,0,0,0,.8-2.4v-.8h-.1a4.1,4.1,0,0,1-1.4,1.2,5.4,5.4,0,0,1-2.2.4,5.2,5.2,0,0,1-2.4-.5,4.6,4.6,0,0,1-1.8-1.3,4.9,4.9,0,0,1-1.1-2,5.9,5.9,0,0,1-.4-2.3,6.7,6.7,0,0,1,.4-2.4,5.5,5.5,0,0,1,5.3-3.9,5.9,5.9,0,0,1,2.2.5,4.3,4.3,0,0,1,1.6,1.4h.1V27h3.7ZM293,33a2.5,2.5,0,0,0-.2-1.2,2.1,2.1,0,0,0-.6-1,1.5,1.5,0,0,0-.9-.6,2.4,2.4,0,0,0-1.2-.3,2.7,2.7,0,0,0-1.2.3,1.6,1.6,0,0,0-.8.6,2.1,2.1,0,0,0-.6,1,5,5,0,0,0-.2,1.2,5.2,5.2,0,0,0,.2,1.1,2.1,2.1,0,0,0,.6,1,1.6,1.6,0,0,0,.8.6,2.7,2.7,0,0,0,1.2.3,2.5,2.5,0,0,0,2.7-1.9A2,2,0,0,0,293,33Z"/><path class="b" d="M299.9,39V20.9H304V39Z"/><path class="b" d="M318.9,33.2v.9h-8.7a3.2,3.2,0,0,0,.3.9,2.3,2.3,0,0,0,.7.7,3.1,3.1,0,0,0,3.5.3,2.8,2.8,0,0,0,1-.9l2.8,1.7a5.3,5.3,0,0,1-2.3,1.9,7.1,7.1,0,0,1-3.2.7,10.9,10.9,0,0,1-2.5-.4,5.7,5.7,0,0,1-2.1-1.3,5.7,5.7,0,0,1-1.9-4.6,5.2,5.2,0,0,1,.5-2.7,6.3,6.3,0,0,1,1.3-2,5.7,5.7,0,0,1,2.1-1.3,6.9,6.9,0,0,1,2.5-.4,6.4,6.4,0,0,1,2.4.4,4.3,4.3,0,0,1,1.9,1.3,6.3,6.3,0,0,1,1.3,2A8.6,8.6,0,0,1,318.9,33.2Zm-3.6-1.5a2.7,2.7,0,0,0-.6-1.7,2.3,2.3,0,0,0-1.8-.6,1.8,1.8,0,0,0-1,.2l-.9.4a3.5,3.5,0,0,0-.5.8,1.6,1.6,0,0,0-.3.9Z"/><path class="b" d="M71.2,28v4h5.5c-.9,2.5-2.2,3.9-5.5,3.9a5.9,5.9,0,1,1,0-11.8,5.7,5.7,0,0,1,3.9,1.4L78,22.6A10.1,10.1,0,0,0,71.2,20a10,10,0,0,0,0,20c8.4,0,10.4-7.2,9.7-12Zm18.3.2V24.7H87v3.5H83.3v2.5H87v3.5h2.5V30.7H93V28.2Z"/></svg>